<svg width="74" height="74" viewBox="0 0 74 74" fill="none" xmlns="http://www.w3.org/2000/svg">
<path d="M50.9828 7.51822H23.0172V11.854H50.9828V7.51822Z" fill="#3067F3"/>
<path d="M18.6814 9.68608H14.3947V11.3726H18.6814V9.68608Z" fill="#3067F3"/>
<path d="M59.6053 9.68608H55.3186V11.3726H59.6053V9.68608Z" fill="#3067F3"/>
<path d="M63.9411 7.51822V15.7085H50.9828V9.68604H23.0172V15.7085H10.0589V7.51822H0.00144958V20.959H73.9985V7.51822H63.9411Z" fill="#3067F3"/>
<path d="M0.00144958 25.2948V74H73.9985V25.2948H0.00144958ZM16.1739 65.9065H9.00979V61.5707H16.1739V65.9065ZM16.1739 56.5124H9.00979V52.1766H16.1739V56.5124ZM16.1739 47.1182H9.00979V42.7824H16.1739V47.1182ZM28.3776 65.9065H21.2149V61.5707H28.3776V65.9065ZM28.3776 56.5124H21.2149V52.1766H28.3776V56.5124ZM28.3776 47.1182H21.2149V42.7824H28.3776V47.1182ZM40.5813 65.9065H33.4187V61.5707H40.5813V65.9065ZM40.5813 56.5124H33.4187V52.1766H40.5813V56.5124ZM40.5813 47.1182H33.4187V42.7824H40.5813V47.1182ZM40.5813 37.7241H33.4187V33.3883H40.5813V37.7241ZM52.7851 65.9065H45.6224V61.5707H52.7851V65.9065ZM52.7851 56.5124H45.6224V52.1766H52.7851V56.5124ZM52.7851 47.1182H45.6224V42.7824H52.7851V47.1182ZM52.7851 37.7241H45.6224V33.3883H52.7851V37.7241ZM64.9902 56.5124H57.8261V52.1766H64.9902V56.5124ZM64.9902 47.1182H57.8261V42.7824H64.9902V47.1182ZM64.9902 37.7241H57.8261V33.3883H64.9902V37.7241Z" fill="#3067F3"/>
<path d="M18.6814 0H14.3947V11.3727H18.6814V0Z" fill="#3067F3"/>
<path d="M59.6053 0H55.3186V11.3727H59.6053V0Z" fill="#3067F3"/>
</svg>
