<svg width="82" height="86" viewBox="0 0 82 86" fill="none" xmlns="http://www.w3.org/2000/svg">
<path d="M74.0389 42.3944C72.3476 38.3206 69.6208 34.672 66.1336 31.6827L65.231 20.8306L55.9284 25.6971C51.8464 24.1626 47.3396 23.3111 42.602 23.3111C26.9238 23.3111 13.7722 32.6317 10.1866 45.1973C9.36237 44.8566 8.46021 44.6673 7.51438 44.6673C3.64438 44.6673 0.495972 47.8158 0.495972 51.6858V58.0501H7.51438V53.011H5.53503V51.6858C5.53503 50.5943 6.42292 49.7064 7.51438 49.7064C8.26621 49.7064 8.92128 50.1278 9.25621 50.747C9.23219 51.1949 9.21842 51.6454 9.21842 52.0986C9.21842 60.9623 13.8653 68.8891 21.1714 74.1699L22.6442 85.9999H33.4625L34.5231 80.0355C37.1101 80.59 39.8158 80.8863 42.6019 80.8863C45.1421 80.8863 47.6154 80.6407 49.993 80.1773L50.718 85.9999H61.5363L63.5832 74.4893C68.2988 71.1988 71.9546 66.8234 74.0389 61.803L81.504 59.7622V44.4352L74.0389 42.3944ZM30.9993 40.4753V35.4363H48.9519V40.4753H30.9993ZM59.7293 47.7889C58.3379 47.7889 57.2098 46.6608 57.2098 45.2693C57.2098 43.8779 58.3379 42.7498 59.7293 42.7498C61.1208 42.7498 62.2489 43.8779 62.2489 45.2693C62.2489 46.6608 61.1209 47.7889 59.7293 47.7889Z" fill="#3067F3"/>
<path d="M39.9753 18.0529C44.9605 18.0529 49.0018 14.0117 49.0018 9.02647C49.0018 4.04129 44.9605 0 39.9753 0C34.9901 0 30.9489 4.04129 30.9489 9.02647C30.9489 14.0117 34.9901 18.0529 39.9753 18.0529Z" fill="#3067F3"/>
</svg>
