<svg width="135" height="44" viewBox="0 0 135 44" fill="none" xmlns="http://www.w3.org/2000/svg">
<path d="M0.949219 35.0674C0.949219 33.2393 1.31836 31.5605 2.05664 30.0312C2.79492 28.4844 3.74414 27.1924 4.9043 26.1553C6.08203 25.1006 7.38281 24.1426 8.80664 23.2812C10.2305 22.4023 11.6543 21.6465 13.0781 21.0137C14.502 20.3633 15.7939 19.748 16.9541 19.168C18.1318 18.5879 19.0898 17.9814 19.8281 17.3486C20.5664 16.6982 20.9355 16.0303 20.9355 15.3447C20.9355 14.4834 20.5664 13.7803 19.8281 13.2354C19.1074 12.6729 18.0352 12.3916 16.6113 12.3916C15.873 12.3916 15.1875 12.5234 14.5547 12.7871C13.9395 13.0332 13.4033 13.3408 12.9463 13.71C12.4893 14.0791 12.0234 14.457 11.5488 14.8438C11.0918 15.2129 10.5293 15.5293 9.86133 15.793C9.21094 16.0391 8.49023 16.1621 7.69922 16.1621C5.71289 16.1621 4.22754 15.749 3.24316 14.9229C2.25879 14.0791 1.7666 12.8926 1.7666 11.3633C1.7666 10.2734 2.10059 9.18359 2.76855 8.09375C3.4541 7.00391 4.40332 6.01074 5.61621 5.11426C6.84668 4.21777 8.41992 3.49707 10.3359 2.95215C12.252 2.38965 14.3438 2.1084 16.6113 2.1084C19.248 2.1084 21.6299 2.45996 23.7568 3.16309C25.9014 3.84863 27.668 4.79785 29.0566 6.01074C30.4453 7.20605 31.5088 8.60352 32.2471 10.2031C32.9854 11.8027 33.3545 13.5166 33.3545 15.3447C33.3545 16.8564 33.082 18.2188 32.5371 19.4316C32.0098 20.6445 31.333 21.6377 30.5068 22.4111C29.6807 23.1846 28.6611 23.9316 27.4482 24.6523C26.2529 25.3555 25.1104 25.9355 24.0205 26.3926C22.9307 26.832 21.7266 27.3594 20.4082 27.9746C19.0898 28.5723 18.0088 29.1348 17.165 29.6621V30.1895H27.4219C29.2852 30.1895 30.7354 30.6816 31.7725 31.666C32.8271 32.6328 33.3545 33.9424 33.3545 35.5947C33.3545 37.2119 32.8271 38.5215 31.7725 39.5234C30.7178 40.5078 29.2676 41 27.4219 41H7.43555C5.57227 41 4.02539 40.4287 2.79492 39.2861C1.56445 38.126 0.949219 36.7197 0.949219 35.0674Z" fill="black"/>
<path d="M34.9629 27.5C34.9629 26.709 35.1387 25.8652 35.4902 24.9688C35.8594 24.0547 36.2285 23.3516 36.5977 22.8594L37.125 22.0947L46.8545 9.20117C47.7861 7.95312 48.6035 6.95996 49.3066 6.22168C50.0098 5.46582 50.8271 4.74512 51.7588 4.05957C52.708 3.37402 53.7451 2.88184 54.8701 2.58301C56.0127 2.2666 57.3047 2.1084 58.7461 2.1084C60.873 2.1084 62.6572 2.80273 64.0986 4.19141C65.5576 5.58008 66.2871 7.23242 66.2871 9.14844V22.0947C67.9043 22.0947 69.2051 22.5957 70.1895 23.5977C71.1914 24.582 71.6924 25.8828 71.6924 27.5C71.6924 29.1172 71.1914 30.4268 70.1895 31.4287C69.2051 32.4131 67.9043 32.9053 66.2871 32.9053V36.1484C66.2871 37.7832 65.7598 39.0928 64.7051 40.0771C63.668 41.0439 62.2178 41.5273 60.3545 41.5273C58.4912 41.5273 57.0322 41.0439 55.9775 40.0771C54.9404 39.0928 54.4219 37.7832 54.4219 36.1484V32.9053H40.9219C39.0586 32.9053 37.5996 32.4131 36.5449 31.4287C35.4902 30.4443 34.9629 29.1348 34.9629 27.5ZM49.2803 22.0947H54.4219V15.6084H53.8682L49.2803 21.5674V22.0947Z" fill="black"/>
<path d="M72.7734 38.8379C72.7734 38.3633 72.8613 37.8359 73.0371 37.2559C73.2129 36.6582 73.3887 36.1836 73.5645 35.832L73.8545 35.3311L91.415 3.18945C91.4502 3.11914 91.5117 3.02246 91.5996 2.89941C91.6875 2.77637 91.8721 2.56543 92.1533 2.2666C92.4521 1.9502 92.7686 1.67773 93.1025 1.44922C93.4365 1.20312 93.8584 0.983398 94.3682 0.790039C94.8955 0.59668 95.4404 0.5 96.0029 0.5C97.8311 0.5 99.2725 0.96582 100.327 1.89746C101.399 2.81152 101.936 3.96289 101.936 5.35156C101.936 5.82617 101.848 6.3623 101.672 6.95996C101.496 7.54004 101.32 8.00586 101.145 8.35742L100.854 8.8584L83.3203 41C83.2852 41.0703 83.2236 41.167 83.1357 41.29C83.0479 41.4131 82.8545 41.624 82.5557 41.9229C82.2744 42.2393 81.9668 42.5117 81.6328 42.7402C81.2988 42.9863 80.8682 43.2061 80.3408 43.3994C79.8311 43.5928 79.2949 43.6895 78.7324 43.6895C76.9043 43.6895 75.4541 43.2236 74.3818 42.292C73.3096 41.3779 72.7734 40.2266 72.7734 38.8379Z" fill="black"/>
<path d="M104.019 12.5498C102.981 11.5654 102.463 10.2471 102.463 8.59473C102.463 6.94238 102.981 5.63281 104.019 4.66602C105.073 3.68164 106.532 3.18945 108.396 3.18945H128.646C130.509 3.18945 131.968 3.68164 133.022 4.66602C134.077 5.65039 134.604 6.95996 134.604 8.59473C134.604 9.38574 134.49 10.2383 134.262 11.1523C134.033 12.0488 133.805 12.752 133.576 13.2617L133.233 14L122.186 37.2295C120.902 40.0947 118.916 41.5273 116.227 41.5273C114.521 41.5273 113.062 41.0352 111.85 40.0508C110.637 39.0488 110.03 37.9238 110.03 36.6758C110.03 36.043 110.118 35.3662 110.294 34.6455C110.487 33.9248 110.672 33.3623 110.848 32.958L111.111 32.3516L119.733 14.5273V14H108.396C106.532 14 105.073 13.5166 104.019 12.5498Z" fill="black"/>
</svg>
