<svg width="51" height="51" viewBox="0 0 51 51" fill="none" xmlns="http://www.w3.org/2000/svg">
<path d="M15.71 30.2634C9.58801 21.6186 11.6355 9.64809 20.2803 3.52755C28.9251 -2.59299 40.8956 -0.546959 47.0162 8.09931C53.1367 16.7441 51.0907 28.7132 42.4444 34.8337C36.2741 39.2022 28.1163 39.5385 21.6082 35.6951L7.46739 49.7511C5.94055 51.3584 3.40019 51.4228 1.79291 49.8959C0.185631 48.3705 0.121281 45.8302 1.64666 44.2229C1.69493 44.1717 1.74173 44.1249 1.79291 44.0767L15.71 30.2634ZM31.3748 31.5738C38.2061 31.5753 43.7446 26.0412 43.7489 19.2099C43.7504 12.3786 38.2163 6.8401 31.3836 6.83717C24.561 6.83425 19.0255 12.3596 19.0123 19.1821C19.0006 26.0149 24.5318 31.5621 31.366 31.5738C31.3689 31.5738 31.3704 31.5738 31.3748 31.5738Z" fill="black"/>
</svg>
