<svg width="59" height="56" viewBox="0 0 59 56" fill="none" xmlns="http://www.w3.org/2000/svg">
<path d="M14.3102 54C13.7076 54 13.1092 53.8145 12.5985 53.4502C11.6472 52.77 11.2028 51.6009 11.4617 50.4728L15 35.0958L3.00037 24.7137C2.11831 23.954 1.78135 22.751 2.14349 21.6502C2.50563 20.5514 3.49091 19.7735 4.65748 19.6672L20.5345 18.2451L26.8117 3.75243C27.2745 2.68764 28.3286 2 29.4998 2C30.671 2 31.7251 2.68764 32.1879 3.74995L38.4651 18.2451L54.3396 19.6672C55.5087 19.7711 56.494 20.5514 56.8561 21.6502C57.2183 22.7489 56.8834 23.954 56.0014 24.7137L44.0017 35.0938L47.54 50.4703C47.7993 51.6009 47.3545 52.77 46.4037 53.4481C45.4549 54.1263 44.1897 54.1784 43.1906 53.586L29.4998 45.5144L15.8091 53.5906C15.3462 53.8617 14.8305 54 14.3102 54ZM29.4998 42.0373C30.0202 42.0373 30.5355 42.1751 30.9987 42.4463L43.9195 50.0704L40.5801 35.557C40.3417 34.5241 40.6971 33.4457 41.5062 32.7468L52.8365 22.9435L37.8462 21.6005C36.7669 21.5032 35.8387 20.8338 35.417 19.8526L29.4998 6.17595L23.5755 19.8547C23.1584 20.8292 22.2302 21.4987 21.1534 21.5959L6.161 22.9389L17.4909 32.7423C18.3025 33.4432 18.6575 34.5196 18.417 35.555L15.0802 50.0679L28.0009 42.4463C28.4638 42.1751 28.9795 42.0373 29.4998 42.0373ZM20.4132 18.5254C20.4132 18.5254 20.4132 18.5278 20.4107 18.5299L20.4132 18.5254ZM38.5818 18.5187L38.5843 18.5233C38.5843 18.5208 38.5843 18.5208 38.5818 18.5187Z" fill="black" stroke="black" stroke-width="2.8"/>
</svg>
