<svg width="103" height="41" viewBox="0 0 103 41" fill="none" xmlns="http://www.w3.org/2000/svg">
<path d="M0.716797 33.0674C0.716797 31.2393 1.08594 29.5605 1.82422 28.0312C2.5625 26.4844 3.51172 25.1924 4.67188 24.1553C5.84961 23.1006 7.15039 22.1426 8.57422 21.2812C9.99805 20.4023 11.4219 19.6465 12.8457 19.0137C14.2695 18.3633 15.5615 17.748 16.7217 17.168C17.8994 16.5879 18.8574 15.9814 19.5957 15.3486C20.334 14.6982 20.7031 14.0303 20.7031 13.3447C20.7031 12.4834 20.334 11.7803 19.5957 11.2354C18.875 10.6729 17.8027 10.3916 16.3789 10.3916C15.6406 10.3916 14.9551 10.5234 14.3223 10.7871C13.707 11.0332 13.1709 11.3408 12.7139 11.71C12.2568 12.0791 11.791 12.457 11.3164 12.8438C10.8594 13.2129 10.2969 13.5293 9.62891 13.793C8.97852 14.0391 8.25781 14.1621 7.4668 14.1621C5.48047 14.1621 3.99512 13.749 3.01074 12.9229C2.02637 12.0791 1.53418 10.8926 1.53418 9.36328C1.53418 8.27344 1.86816 7.18359 2.53613 6.09375C3.22168 5.00391 4.1709 4.01074 5.38379 3.11426C6.61426 2.21777 8.1875 1.49707 10.1035 0.952148C12.0195 0.389648 14.1113 0.108398 16.3789 0.108398C19.0156 0.108398 21.3975 0.459961 23.5244 1.16309C25.6689 1.84863 27.4355 2.79785 28.8242 4.01074C30.2129 5.20605 31.2764 6.60352 32.0146 8.20312C32.7529 9.80273 33.1221 11.5166 33.1221 13.3447C33.1221 14.8564 32.8496 16.2188 32.3047 17.4316C31.7773 18.6445 31.1006 19.6377 30.2744 20.4111C29.4482 21.1846 28.4287 21.9316 27.2158 22.6523C26.0205 23.3555 24.8779 23.9355 23.7881 24.3926C22.6982 24.832 21.4941 25.3594 20.1758 25.9746C18.8574 26.5723 17.7764 27.1348 16.9326 27.6621V28.1895H27.1895C29.0527 28.1895 30.5029 28.6816 31.54 29.666C32.5947 30.6328 33.1221 31.9424 33.1221 33.5947C33.1221 35.2119 32.5947 36.5215 31.54 37.5234C30.4854 38.5078 29.0352 39 27.1895 39H7.20312C5.33984 39 3.79297 38.4287 2.5625 37.2861C1.33203 36.126 0.716797 34.7197 0.716797 33.0674Z" fill="black"/>
<path d="M36.3652 25.2363V14.9795C36.3652 12.9053 36.7607 10.9629 37.5518 9.15234C38.3428 7.32422 39.4502 5.74219 40.874 4.40625C42.2979 3.07031 44.0645 2.02441 46.1738 1.26855C48.2832 0.495117 50.5947 0.108398 53.1084 0.108398C55.6221 0.108398 57.9336 0.495117 60.043 1.26855C62.1523 2.02441 63.9189 3.07031 65.3428 4.40625C66.7666 5.74219 67.874 7.32422 68.665 9.15234C69.4561 10.9629 69.8516 12.9053 69.8516 14.9795V25.2363C69.8516 27.3105 69.4561 29.2617 68.665 31.0898C67.874 32.9004 66.7666 34.4736 65.3428 35.8096C63.9189 37.1279 62.1523 38.1738 60.043 38.9473C57.9336 39.7031 55.6221 40.0811 53.1084 40.0811C50.5947 40.0811 48.2832 39.7031 46.1738 38.9473C44.0645 38.1738 42.2979 37.1279 40.874 35.8096C39.4502 34.4736 38.3428 32.9004 37.5518 31.0898C36.7607 29.2617 36.3652 27.3105 36.3652 25.2363ZM48.5205 25.2363C48.5205 26.9238 48.9688 28.2949 49.8652 29.3496C50.7617 30.3867 51.8428 30.9053 53.1084 30.9053C54.374 30.9053 55.4551 30.3867 56.3516 29.3496C57.248 28.2949 57.6963 26.9238 57.6963 25.2363V14.9795C57.6963 13.292 57.248 11.9297 56.3516 10.8926C55.4551 9.83789 54.374 9.31055 53.1084 9.31055C51.8428 9.31055 50.7617 9.83789 49.8652 10.8926C48.9688 11.9297 48.5205 13.292 48.5205 14.9795V25.2363Z" fill="black"/>
<path d="M74.0439 24.1025C73.042 23.1709 72.541 22.0195 72.541 20.6484C72.541 19.2773 73.042 18.126 74.0439 17.1943C75.0459 16.2451 76.3467 15.7705 77.9463 15.7705H82.5342V11.1826C82.5342 9.58301 83 8.28223 83.9316 7.28027C84.8809 6.27832 86.041 5.77734 87.4121 5.77734C88.7832 5.77734 89.9346 6.27832 90.8662 7.28027C91.7979 8.28223 92.2637 9.58301 92.2637 11.1826V15.7705H96.8516C98.4512 15.7705 99.752 16.2451 100.754 17.1943C101.756 18.126 102.257 19.2773 102.257 20.6484C102.257 22.0195 101.756 23.1709 100.754 24.1025C99.752 25.0342 98.4512 25.5 96.8516 25.5H92.2637V30.0879C92.2637 31.6875 91.7979 32.9883 90.8662 33.9902C89.9346 34.9922 88.7832 35.4932 87.4121 35.4932C86.041 35.4932 84.8809 34.9922 83.9316 33.9902C83 32.9883 82.5342 31.6875 82.5342 30.0879V25.5H77.9463C76.3467 25.5 75.0459 25.0342 74.0439 24.1025Z" fill="black"/>
</svg>
